Coordinates
version=1
nRows=14
nColumns=33
inDegrees=yes

Units are S.I. units (second, meters, Newtons, ...)
Angles are in degrees.

endheader
time	ground_thorax_rot_x	ground_thorax_rot_y	ground_thorax_rot_z	ground_thorax_tx	ground_thorax_ty	ground_thorax_tz	clav_prot_r	clav_elev_r	scapula_abduction_r	scapula_elevation_r	scapula_upward_rot_r	scapula_winging_r	shoulder_elv_r	plane_of_elev_r	axial_rot_r	elbow_flexion_r	pro_sup_r	wrist_flex_r	wrist_dev_r	clav_prot_l	clav_elev_l	scapula_abduction_l	scapula_elevation_l	scapula_upward_rot_l	scapula_winging_l	shoulder_elv_l	plane_of_elev_l	axial_rot_l	elbow_flexion_l	pro_sup_l	wrist_flex_l	wrist_dev_l	
8.6100	-38.621410	-3.255038	-1.540589	-9.288032	811.210786	2.320902	4.049285	-45.000000	44.999995	-45.000000	-4.888848	-2967.993083	-3177.034013	29.170395	74.058274	729.664475	8.487908	17.230842	12.133130	15.166706	41.937398	-44.999998	-40.430014	-22.105014	1517.762769	-2621.487826	135.596724	-180.026268	726.323366	14.860496	14.136338	-18.213828	
8.6200	-38.514223	-3.573042	-1.305147	-8.661340	810.069668	2.566049	4.102156	-45.000000	44.999991	-45.000000	-5.239761	-2967.967764	-3177.041477	29.079346	74.339484	729.609001	8.544605	17.160692	12.139166	15.067626	41.549163	-44.999996	-40.074445	-22.233317	1517.841688	-2621.530814	135.612827	-179.982246	726.148026	15.109782	14.012180	-18.178269	
8.6300	-38.418506	-3.871431	-1.080120	-8.165045	808.970212	2.780809	4.121219	-45.000000	44.999983	-45.000000	-5.608251	-2967.936254	-3177.039128	28.984557	74.620192	729.535554	8.610726	17.074886	12.140414	14.928558	41.087024	-44.999994	-39.752329	-22.415966	1517.912017	-2621.554135	135.607197	-179.975149	725.962362	15.347143	13.914107	-18.126741	
8.6400	-38.360296	-4.061813	-0.982095	-7.943147	807.967737	2.930295	4.140108	-45.000000	44.999970	-45.000000	-5.849038	-2967.929497	-3177.071094	28.904443	74.854130	729.462845	8.670010	17.014034	12.140321	14.839858	40.852497	-44.999989	-39.506677	-22.429699	1517.998865	-2621.613828	135.621987	-179.970872	725.778693	15.518217	13.817463	-18.102431	
8.6500	-38.330603	-4.189899	-0.950196	-8.019595	807.059858	3.012646	4.155978	-45.000000	44.999946	-45.000000	-6.036168	-2967.952754	-3177.114121	28.837665	75.064026	729.393328	8.741091	16.970855	12.136999	14.770064	40.735920	-44.999980	-39.322301	-22.374684	1518.105308	-2621.691402	135.644204	-179.974449	725.595830	15.626294	13.724355	-18.092789	
8.6600	-38.325378	-4.267821	-0.968541	-8.434997	806.250723	3.023133	4.167478	-45.000000	44.999904	-45.000000	-6.183598	-2968.007959	-3177.155389	28.779410	75.255306	729.332106	8.837759	16.942519	12.126313	14.720817	40.707264	-44.999964	-39.195040	-22.285846	1518.234710	-2621.777617	135.670518	-179.984281	725.419392	15.666357	13.638113	-18.092785	
8.6700	-38.339327	-4.324475	-0.999703	-9.194779	805.528629	2.967443	4.189009	-45.000000	44.999828	-45.000000	-6.337179	-2968.104734	-3177.189694	28.734734	75.449532	729.281209	8.978856	16.932769	12.107005	14.687430	40.739849	-44.999935	-39.114000	-22.209758	1518.386546	-2621.867859	135.700149	-179.992330	725.247912	15.640210	13.549208	-18.101073	
8.6800	-38.365400	-4.385540	-1.015115	-10.287019	804.875820	2.856191	4.216619	-45.000000	44.999692	-45.000000	-6.524222	-2968.231567	-3177.201102	28.688337	75.662014	729.250767	9.181672	16.933353	12.074530	14.668062	40.768201	-44.999884	-39.065208	-22.203460	1518.557989	-2621.944953	135.729315	-179.998654	725.090188	15.558894	13.463687	-18.106842	
8.6900	-38.404548	-4.450959	-1.012894	-11.698160	804.276120	2.699880	4.266424	-45.000000	44.999449	-45.000000	-6.753001	-2968.399957	-3177.204013	28.650770	75.904649	729.238601	9.458519	16.952656	12.025950	14.667969	40.823523	-44.999791	-39.050702	-22.266950	1518.739690	-2622.010453	135.761109	-179.997786	724.946680	15.430046	13.370624	-18.116633	
8.7000	-38.459323	-4.520624	-0.998710	-13.414947	803.715545	2.507498	4.326419	-45.000000	44.999013	-45.000000	-7.020554	-2968.578057	-3177.189132	28.596070	76.183174	729.252451	9.819810	16.979853	11.959468	14.690667	40.873945	-44.999626	-39.076722	-22.417518	1518.918559	-2622.055995	135.798619	-179.995484	724.828123	15.271733	13.285325	-18.121672	
8.7100	-38.534424	-4.593272	-0.971085	-15.425858	803.182313	2.285709	4.411027	-45.000000	44.998231	-45.000000	-7.343526	-2968.774705	-3177.174466	28.537360	76.498745	729.284993	10.277865	17.022450	11.876595	14.735069	40.941942	-44.999331	-39.150451	-22.657638	1519.079028	-2622.082187	135.845321	-179.993446	724.724975	15.099935	13.197608	-18.128525	
8.7200	-38.625337	-4.671004	-0.935908	-17.721593	802.667095	2.038678	4.512623	-45.000000	44.996833	-45.000000	-7.709962	-2968.971432	-3177.148482	28.459157	76.837176	729.348360	10.842011	17.073590	11.776616	14.801886	41.005040	-44.998801	-39.262989	-22.979844	1519.224804	-2622.091511	135.906429	-179.991562	724.650025	14.938419	13.114927	-18.134952	
8.7300	-38.724134	-4.765858	-0.867311	-20.295218	802.162653	1.768417	4.647514	-45.000000	44.994324	-45.000000	-8.140759	-2969.200781	-3177.124901	28.380032	77.186058	729.427205	11.529311	17.136386	11.655560	14.897666	41.084247	-44.997853	-39.411242	-23.447118	1519.339743	-2622.067841	135.962800	-179.991034	724.592531	14.810442	13.015671	-18.145437	
8.7400	-38.818924	-4.878332	-0.772085	-23.141138	801.663775	1.475563	4.803457	-45.000000	44.989839	-45.000000	-8.621463	-2969.454161	-3177.091806	28.295753	77.539101	729.524279	12.342569	17.200354	11.513431	15.024126	41.154677	-44.996155	-39.575374	-24.036805	1519.442030	-2622.022787	136.009451	-179.989913	724.556344	14.738388	12.901332	-18.155060	
